<svg xmlns="http://www.w3.org/2000/svg" xmlns:xlink="http://www.w3.org/1999/xlink" width="1080" zoomAndPan="magnify" viewBox="0 0 810 809.999993" height="1080" preserveAspectRatio="xMidYMid meet" version="1.0"><defs><clipPath id="736d7d3424"><path d="M 243 208.285156 L 509 208.285156 L 509 469.285156 L 243 469.285156 Z M 243 208.285156 " clip-rule="nonzero"/></clipPath><clipPath id="4082d20807"><path d="M 317 208.285156 L 441 208.285156 L 441 465 L 317 465 Z M 317 208.285156 " clip-rule="nonzero"/></clipPath></defs><path fill="#cf9dc8" d="M 354.746094 458.367188 L 354.746094 464.273438 L 274.996094 464.273438 L 274.996094 418.078125 C 274.996094 403.785156 286.578125 392.199219 300.863281 392.199219 L 336.238281 392.199219 C 346.460938 392.199219 354.746094 400.488281 354.746094 410.714844 L 354.746094 438.019531 C 358.964844 440.976562 363.183594 443.933594 367.40625 446.886719 Z M 354.746094 458.367188 " fill-opacity="1" fill-rule="nonzero"/><g clip-path="url(#736d7d3424)"><path fill="#e0e887" d="M 434.578125 216.667969 L 434.578125 316.792969 C 434.578125 321.421875 430.828125 325.171875 426.203125 325.171875 L 326.132812 325.171875 C 321.503906 325.171875 317.753906 321.421875 317.753906 316.792969 L 317.753906 216.667969 C 317.753906 212.039062 321.503906 208.285156 326.132812 208.285156 L 426.203125 208.285156 C 430.828125 208.285156 434.578125 212.039062 434.578125 216.667969 Z M 508.328125 464.273438 L 243.109375 464.273438 L 243.109375 469.285156 L 508.328125 469.285156 Z M 508.328125 464.273438 " fill-opacity="1" fill-rule="nonzero"/></g><path fill="#000000" d="M 566.890625 338.566406 L 566.890625 394.960938 C 566.890625 397.6875 564.679688 399.898438 561.957031 399.898438 L 505.492188 399.898438 C 502.765625 399.898438 500.558594 397.6875 500.558594 394.960938 L 500.558594 325.746094 C 500.558594 323.019531 502.765625 320.808594 505.492188 320.808594 L 550.519531 320.808594 Z M 449.128906 319.976562 L 404.101562 319.976562 C 401.375 319.976562 399.167969 322.1875 399.167969 324.914062 L 399.167969 394.125 C 399.167969 396.855469 401.375 399.066406 404.101562 399.066406 L 460.566406 399.066406 C 463.289062 399.066406 465.5 396.855469 465.5 394.125 L 465.5 337.730469 Z M 497.707031 219.554688 L 482.851562 219.554688 C 476.148438 219.554688 470.710938 224.996094 470.710938 231.703125 L 470.710938 235.535156 C 470.710938 242.246094 476.148438 247.683594 482.851562 247.683594 L 496.210938 247.683594 L 499.539062 258.171875 L 502.652344 246.632812 C 506.894531 244.738281 509.851562 240.484375 509.851562 235.535156 L 509.851562 231.703125 C 509.851562 224.996094 504.414062 219.554688 497.707031 219.554688 Z M 336.078125 340.203125 L 316.433594 340.203125 C 307.847656 340.203125 300.882812 347.167969 300.882812 355.761719 L 300.882812 363.816406 C 300.882812 372.410156 307.847656 379.375 316.433594 379.375 L 338.773438 379.375 L 338.773438 342.898438 C 338.773438 341.410156 337.566406 340.203125 336.078125 340.203125 Z M 336.078125 340.203125 " fill-opacity="1" fill-rule="nonzero"/><path fill="#f9b9ac" d="M 324.023438 451.164062 C 325.597656 451.519531 327.03125 451.753906 328.308594 451.90625 C 333.867188 452.566406 339.738281 453.175781 340.75 456.234375 C 341.082031 457.238281 340.785156 458.25 340.496094 458.929688 C 335.003906 458.960938 329.515625 458.996094 324.023438 459.027344 C 324.023438 456.40625 324.023438 453.785156 324.023438 451.164062 Z M 336.230469 348.75 L 331.992188 348.75 C 330.691406 348.75 329.421875 349.164062 328.386719 350.03125 C 328.1875 350.222656 327.988281 350.414062 327.789062 350.636719 C 326.320312 352.398438 326.253906 354.699219 326.386719 357.132812 C 326.554688 360.234375 326.988281 363.5625 325.152344 366.183594 C 324.515625 367.113281 323.347656 368.296875 321.113281 369.03125 C 321.078125 366.535156 319.242188 364.519531 316.972656 364.488281 C 314.671875 364.425781 312.667969 366.472656 312.667969 369.03125 L 312.667969 392.898438 C 316.074219 395.207031 319.480469 397.519531 322.882812 399.828125 C 326.332031 397.519531 329.78125 395.207031 333.226562 392.898438 C 333.226562 389.195312 333.226562 385.496094 333.226562 381.796875 L 333.394531 381.796875 C 337.433594 381.796875 340.703125 378.246094 340.703125 373.894531 L 340.703125 353.546875 C 340.703125 350.894531 338.699219 348.75 336.230469 348.75 Z M 336.230469 348.75 " fill-opacity="1" fill-rule="nonzero"/><path fill="#000000" d="M 324.023438 464.273438 C 324.023438 458.902344 324.023438 453.527344 324.023438 448.15625 L 317.648438 448.15625 C 317.199219 453.527344 316.746094 458.902344 316.292969 464.273438 C 318.871094 464.273438 321.445312 464.273438 324.023438 464.273438 Z M 322.882812 399.828125 C 320.742188 404.019531 318.601562 408.210938 316.464844 412.402344 C 313.507812 405.667969 310.550781 398.933594 307.59375 392.199219 L 312.667969 387.222656 Z M 322.882812 399.828125 L 333.226562 387.222656 L 338.773438 392.199219 L 329.347656 411.792969 Z M 322.882812 399.828125 " fill-opacity="1" fill-rule="nonzero"/><path fill="#8d53a1" d="M 382.3125 249.472656 C 382.3125 253.519531 379.035156 256.796875 374.992188 256.796875 C 370.953125 256.796875 367.675781 253.519531 367.675781 249.472656 C 367.675781 245.429688 370.953125 242.152344 374.992188 242.152344 C 379.035156 242.152344 382.3125 245.429688 382.3125 249.472656 Z M 387.25 268.832031 L 387.25 265.867188 C 387.25 261.5 383.710938 257.960938 379.34375 257.960938 L 370.640625 257.960938 C 366.277344 257.960938 362.738281 261.5 362.738281 265.867188 L 362.738281 268.832031 C 362.738281 270.789062 364.324219 272.378906 366.28125 272.378906 L 383.707031 272.378906 C 385.664062 272.378906 387.25 270.789062 387.25 268.832031 Z M 387.25 268.832031 " fill-opacity="1" fill-rule="nonzero"/><path fill="#cf9dc8" d="M 345.894531 237.8125 C 345.71875 237.601562 345.742188 237.285156 345.953125 237.109375 C 346.984375 236.238281 348.070312 235.402344 349.171875 234.625 C 349.398438 234.46875 349.710938 234.523438 349.867188 234.746094 C 350.027344 234.972656 349.972656 235.285156 349.746094 235.445312 C 348.667969 236.207031 347.609375 237.023438 346.597656 237.871094 C 346.503906 237.953125 346.390625 237.992188 346.277344 237.992188 C 346.132812 237.988281 345.992188 237.929688 345.894531 237.8125 Z M 331.054688 280.75 C 330.828125 279.449219 330.652344 278.125 330.535156 276.804688 C 330.511719 276.53125 330.273438 276.324219 329.996094 276.351562 C 329.71875 276.375 329.519531 276.617188 329.542969 276.894531 C 329.660156 278.238281 329.835938 279.59375 330.070312 280.921875 C 330.113281 281.167969 330.324219 281.335938 330.5625 281.335938 C 330.589844 281.335938 330.621094 281.332031 330.648438 281.328125 C 330.921875 281.28125 331.101562 281.023438 331.054688 280.75 Z M 352.84375 233.367188 C 352.929688 233.367188 353.015625 233.34375 353.097656 233.296875 C 354.238281 232.636719 355.421875 232.015625 356.617188 231.453125 C 356.867188 231.335938 356.976562 231.039062 356.859375 230.789062 C 356.742188 230.539062 356.445312 230.433594 356.195312 230.546875 C 354.972656 231.121094 353.761719 231.757812 352.59375 232.433594 C 352.355469 232.570312 352.273438 232.878906 352.414062 233.117188 C 352.507812 233.277344 352.671875 233.367188 352.84375 233.367188 Z M 335.75 250.203125 C 335.828125 250.246094 335.914062 250.269531 335.996094 250.269531 C 336.171875 250.269531 336.339844 250.179688 336.429688 250.019531 C 337.089844 248.875 337.808594 247.746094 338.566406 246.660156 C 338.722656 246.433594 338.667969 246.125 338.441406 245.964844 C 338.21875 245.808594 337.90625 245.863281 337.746094 246.089844 C 336.972656 247.195312 336.238281 248.351562 335.566406 249.519531 C 335.429688 249.757812 335.511719 250.0625 335.75 250.203125 Z M 330.457031 265.316406 C 330.488281 265.324219 330.515625 265.324219 330.546875 265.324219 C 330.785156 265.324219 330.996094 265.152344 331.035156 264.910156 C 331.261719 263.609375 331.550781 262.300781 331.886719 261.023438 C 331.957031 260.757812 331.800781 260.484375 331.535156 260.414062 C 331.269531 260.34375 330.992188 260.5 330.921875 260.765625 C 330.578125 262.074219 330.285156 263.410156 330.050781 264.738281 C 330.003906 265.011719 330.1875 265.269531 330.457031 265.316406 Z M 330.363281 272.832031 L 330.363281 272.777344 C 330.363281 271.46875 330.417969 270.148438 330.527344 268.855469 C 330.550781 268.582031 330.347656 268.339844 330.074219 268.316406 C 329.800781 268.292969 329.554688 268.496094 329.53125 268.769531 C 329.421875 270.09375 329.363281 271.441406 329.363281 272.777344 L 329.363281 272.832031 C 329.363281 273.109375 329.585938 273.332031 329.863281 273.332031 C 330.136719 273.332031 330.363281 273.105469 330.363281 272.832031 Z M 360.113281 229.953125 C 360.171875 229.953125 360.230469 229.945312 360.285156 229.925781 C 361.527344 229.46875 362.800781 229.066406 364.078125 228.722656 C 364.34375 228.652344 364.5 228.375 364.429688 228.109375 C 364.359375 227.84375 364.085938 227.6875 363.816406 227.757812 C 362.515625 228.109375 361.210938 228.519531 359.941406 228.984375 C 359.683594 229.082031 359.550781 229.367188 359.644531 229.625 C 359.71875 229.828125 359.910156 229.953125 360.113281 229.953125 Z M 332.4375 257.527344 C 332.492188 257.546875 332.550781 257.558594 332.609375 257.558594 C 332.8125 257.558594 333.003906 257.433594 333.078125 257.230469 C 333.527344 255.988281 334.039062 254.75 334.597656 253.550781 C 334.714844 253.300781 334.605469 253.003906 334.355469 252.886719 C 334.105469 252.769531 333.808594 252.878906 333.691406 253.128906 C 333.121094 254.355469 332.597656 255.621094 332.140625 256.890625 C 332.046875 257.148438 332.179688 257.433594 332.4375 257.527344 Z M 340.601562 243.679688 C 340.746094 243.679688 340.886719 243.621094 340.984375 243.503906 C 341.832031 242.488281 342.738281 241.5 343.671875 240.566406 C 343.863281 240.371094 343.863281 240.054688 343.667969 239.859375 C 343.472656 239.664062 343.15625 239.664062 342.964844 239.859375 C 342.007812 240.816406 341.085938 241.828125 340.222656 242.863281 C 340.042969 243.074219 340.070312 243.386719 340.28125 243.566406 C 340.375 243.644531 340.488281 243.679688 340.601562 243.679688 Z M 413.25 246.535156 C 413.347656 246.671875 413.503906 246.746094 413.660156 246.746094 C 413.757812 246.746094 413.859375 246.714844 413.945312 246.65625 C 414.171875 246.496094 414.226562 246.183594 414.066406 245.957031 C 413.289062 244.855469 412.457031 243.773438 411.585938 242.738281 C 411.40625 242.527344 411.09375 242.503906 410.882812 242.679688 C 410.671875 242.859375 410.644531 243.175781 410.820312 243.386719 C 411.671875 244.394531 412.492188 245.457031 413.25 246.535156 Z M 417.242188 253.40625 C 417.328125 253.585938 417.507812 253.695312 417.695312 253.695312 C 417.765625 253.695312 417.839844 253.679688 417.90625 253.644531 C 418.15625 253.527344 418.265625 253.230469 418.148438 252.980469 C 417.574219 251.757812 416.9375 250.546875 416.261719 249.382812 C 416.121094 249.144531 415.816406 249.0625 415.578125 249.199219 C 415.339844 249.339844 415.257812 249.644531 415.398438 249.882812 C 416.058594 251.023438 416.683594 252.210938 417.242188 253.40625 Z M 408.128906 240.457031 C 408.226562 240.554688 408.351562 240.601562 408.480469 240.601562 C 408.609375 240.601562 408.738281 240.554688 408.835938 240.457031 C 409.027344 240.257812 409.027344 239.941406 408.832031 239.75 C 407.875 238.796875 406.867188 237.871094 405.832031 237.007812 C 405.621094 236.828125 405.304688 236.859375 405.128906 237.070312 C 404.953125 237.28125 404.980469 237.597656 405.191406 237.773438 C 406.203125 238.621094 407.191406 239.523438 408.128906 240.457031 Z M 420.84375 264.75 C 421.074219 266.050781 421.25 267.378906 421.363281 268.695312 C 421.386719 268.953125 421.605469 269.148438 421.863281 269.148438 C 421.875 269.148438 421.890625 269.148438 421.90625 269.148438 C 422.179688 269.121094 422.382812 268.878906 422.359375 268.605469 C 422.238281 267.261719 422.058594 265.902344 421.824219 264.574219 C 421.777344 264.304688 421.515625 264.125 421.246094 264.171875 C 420.972656 264.21875 420.792969 264.480469 420.84375 264.75 Z M 383.789062 227.832031 C 385.089844 228.058594 386.398438 228.34375 387.671875 228.679688 C 387.714844 228.691406 387.757812 228.699219 387.800781 228.699219 C 388.023438 228.699219 388.226562 228.550781 388.285156 228.324219 C 388.355469 228.058594 388.195312 227.785156 387.929688 227.714844 C 386.625 227.371094 385.289062 227.078125 383.960938 226.847656 C 383.6875 226.796875 383.429688 226.980469 383.382812 227.253906 C 383.335938 227.523438 383.515625 227.785156 383.789062 227.832031 Z M 367.871094 227.867188 C 367.898438 227.867188 367.929688 227.863281 367.957031 227.859375 C 369.257812 227.628906 370.582031 227.453125 371.898438 227.335938 C 372.175781 227.3125 372.378906 227.070312 372.351562 226.796875 C 372.328125 226.519531 372.089844 226.320312 371.8125 226.34375 C 370.464844 226.460938 369.109375 226.640625 367.785156 226.875 C 367.511719 226.921875 367.332031 227.183594 367.378906 227.453125 C 367.421875 227.695312 367.632812 227.867188 367.871094 227.867188 Z M 375.871094 227.160156 L 375.953125 227.160156 C 377.25 227.160156 378.558594 227.214844 379.84375 227.324219 C 379.859375 227.324219 379.875 227.324219 379.886719 227.324219 C 380.144531 227.324219 380.363281 227.128906 380.386719 226.867188 C 380.410156 226.59375 380.203125 226.351562 379.929688 226.328125 C 378.617188 226.21875 377.277344 226.160156 375.949219 226.160156 L 375.871094 226.160156 C 375.597656 226.160156 375.371094 226.382812 375.371094 226.660156 C 375.371094 226.9375 375.597656 227.160156 375.871094 227.160156 Z M 391.46875 229.871094 C 392.707031 230.320312 393.945312 230.828125 395.144531 231.386719 C 395.210938 231.417969 395.285156 231.433594 395.355469 231.433594 C 395.542969 231.433594 395.722656 231.324219 395.808594 231.144531 C 395.925781 230.894531 395.816406 230.597656 395.566406 230.480469 C 394.339844 229.910156 393.074219 229.386719 391.808594 228.929688 C 391.546875 228.835938 391.261719 228.96875 391.167969 229.230469 C 391.074219 229.488281 391.207031 229.773438 391.46875 229.871094 Z M 398.675781 233.21875 C 399.820312 233.878906 400.949219 234.597656 402.03125 235.355469 C 402.121094 235.414062 402.21875 235.445312 402.316406 235.445312 C 402.476562 235.445312 402.632812 235.371094 402.726562 235.230469 C 402.886719 235.003906 402.832031 234.695312 402.605469 234.535156 C 401.496094 233.761719 400.34375 233.027344 399.175781 232.355469 C 398.933594 232.21875 398.628906 232.296875 398.492188 232.539062 C 398.355469 232.777344 398.4375 233.082031 398.675781 233.21875 Z M 375.953125 318.394531 C 374.636719 318.394531 373.3125 318.335938 372.007812 318.222656 C 371.738281 318.203125 371.492188 318.40625 371.46875 318.679688 C 371.445312 318.953125 371.648438 319.195312 371.921875 319.21875 C 373.253906 319.335938 374.609375 319.390625 375.953125 319.390625 L 375.980469 319.390625 C 376.257812 319.390625 376.464844 319.167969 376.464844 318.894531 C 376.464844 318.617188 376.230469 318.394531 375.953125 318.394531 Z M 410.886719 302.09375 C 410.035156 303.105469 409.132812 304.089844 408.199219 305.027344 C 408.003906 305.222656 408.003906 305.539062 408.199219 305.730469 C 408.296875 305.828125 408.425781 305.878906 408.550781 305.878906 C 408.679688 305.878906 408.808594 305.828125 408.90625 305.730469 C 409.859375 304.777344 410.78125 303.769531 411.652344 302.734375 C 411.828125 302.523438 411.800781 302.207031 411.589844 302.03125 C 411.378906 301.851562 411.0625 301.878906 410.886719 302.09375 Z M 419.449219 288.078125 C 419.191406 287.980469 418.90625 288.117188 418.808594 288.375 C 418.359375 289.613281 417.847656 290.851562 417.289062 292.050781 C 417.171875 292.300781 417.277344 292.597656 417.527344 292.714844 C 417.597656 292.746094 417.667969 292.761719 417.738281 292.761719 C 417.925781 292.761719 418.105469 292.65625 418.191406 292.472656 C 418.765625 291.246094 419.289062 289.984375 419.75 288.714844 C 419.84375 288.457031 419.710938 288.171875 419.449219 288.078125 Z M 416.128906 295.398438 C 415.890625 295.261719 415.585938 295.34375 415.449219 295.582031 C 414.789062 296.722656 414.066406 297.851562 413.308594 298.9375 C 413.148438 299.160156 413.203125 299.472656 413.429688 299.632812 C 413.519531 299.691406 413.617188 299.722656 413.71875 299.722656 C 413.875 299.722656 414.027344 299.648438 414.125 299.507812 C 414.902344 298.402344 415.636719 297.25 416.3125 296.082031 C 416.449219 295.84375 416.371094 295.535156 416.128906 295.398438 Z M 398.765625 312.28125 C 397.621094 312.945312 396.433594 313.5625 395.238281 314.121094 C 394.992188 314.238281 394.882812 314.535156 395 314.785156 C 395.085938 314.96875 395.265625 315.074219 395.453125 315.074219 C 395.523438 315.074219 395.59375 315.058594 395.664062 315.027344 C 396.882812 314.457031 398.097656 313.824219 399.265625 313.144531 C 399.503906 313.007812 399.585938 312.703125 399.445312 312.464844 C 399.308594 312.226562 399.003906 312.144531 398.765625 312.28125 Z M 405.269531 307.714844 C 404.257812 308.566406 403.195312 309.378906 402.113281 310.140625 C 401.890625 310.300781 401.835938 310.609375 401.992188 310.835938 C 402.089844 310.976562 402.246094 311.050781 402.402344 311.050781 C 402.5 311.050781 402.601562 311.019531 402.6875 310.957031 C 403.792969 310.183594 404.878906 309.347656 405.910156 308.480469 C 406.121094 308.304688 406.148438 307.988281 405.972656 307.777344 C 405.792969 307.566406 405.480469 307.539062 405.269531 307.714844 Z M 422.542969 272.667969 C 422.542969 272.390625 422.320312 272.167969 422.042969 272.167969 C 421.769531 272.167969 421.546875 272.390625 421.546875 272.667969 L 421.546875 272.777344 C 421.546875 274.101562 421.488281 275.441406 421.375 276.75 C 421.351562 277.027344 421.554688 277.269531 421.828125 277.292969 C 421.84375 277.292969 421.859375 277.292969 421.871094 277.292969 C 422.128906 277.292969 422.347656 277.097656 422.371094 276.835938 C 422.484375 275.496094 422.542969 274.128906 422.542969 272.769531 Z M 420.457031 261.238281 C 420.5 261.238281 420.546875 261.230469 420.589844 261.21875 C 420.855469 261.148438 421.011719 260.875 420.941406 260.605469 C 420.589844 259.304688 420.175781 258 419.710938 256.730469 C 419.617188 256.472656 419.328125 256.339844 419.070312 256.433594 C 418.8125 256.53125 418.679688 256.816406 418.773438 257.074219 C 419.226562 258.316406 419.632812 259.59375 419.976562 260.867188 C 420.035156 261.089844 420.238281 261.238281 420.457031 261.238281 Z M 421.4375 280.289062 C 421.167969 280.242188 420.910156 280.425781 420.859375 280.695312 C 420.632812 281.996094 420.34375 283.304688 420.003906 284.582031 C 419.933594 284.847656 420.089844 285.121094 420.359375 285.191406 C 420.402344 285.203125 420.445312 285.210938 420.488281 285.210938 C 420.707031 285.210938 420.910156 285.0625 420.96875 284.839844 C 421.316406 283.535156 421.613281 282.199219 421.84375 280.867188 C 421.890625 280.597656 421.710938 280.335938 421.4375 280.289062 Z M 368.066406 317.710938 C 366.761719 317.484375 365.457031 317.199219 364.183594 316.859375 C 363.914062 316.789062 363.640625 316.945312 363.570312 317.210938 C 363.5 317.480469 363.65625 317.753906 363.925781 317.824219 C 365.226562 318.171875 366.5625 318.464844 367.894531 318.695312 C 367.921875 318.703125 367.949219 318.703125 367.980469 318.703125 C 368.21875 318.703125 368.429688 318.535156 368.472656 318.289062 C 368.519531 318.019531 368.335938 317.761719 368.066406 317.710938 Z M 338.625 298.976562 C 338.464844 298.75 338.152344 298.695312 337.929688 298.855469 C 337.703125 299.011719 337.648438 299.324219 337.808594 299.550781 C 338.582031 300.65625 339.417969 301.738281 340.285156 302.773438 C 340.382812 302.890625 340.527344 302.949219 340.667969 302.949219 C 340.78125 302.949219 340.894531 302.910156 340.988281 302.832031 C 341.199219 302.652344 341.226562 302.339844 341.050781 302.128906 C 340.199219 301.117188 339.382812 300.054688 338.625 298.976562 Z M 353.183594 312.304688 C 352.042969 311.644531 350.914062 310.925781 349.832031 310.167969 C 349.605469 310.007812 349.292969 310.0625 349.136719 310.289062 C 348.976562 310.515625 349.03125 310.828125 349.257812 310.988281 C 350.363281 311.761719 351.515625 312.496094 352.683594 313.171875 C 352.765625 313.21875 352.847656 313.238281 352.933594 313.238281 C 353.105469 313.238281 353.273438 313.148438 353.367188 312.988281 C 353.503906 312.75 353.425781 312.445312 353.183594 312.304688 Z M 343.742188 305.058594 C 343.546875 304.863281 343.230469 304.863281 343.035156 305.058594 C 342.839844 305.253906 342.839844 305.570312 343.035156 305.765625 C 343.988281 306.71875 345 307.644531 346.03125 308.511719 C 346.125 308.589844 346.242188 308.628906 346.351562 308.628906 C 346.496094 308.628906 346.636719 308.566406 346.734375 308.449219 C 346.914062 308.238281 346.886719 307.921875 346.675781 307.746094 C 345.664062 306.894531 344.675781 305.992188 343.742188 305.058594 Z M 334.640625 292.097656 C 334.523438 291.847656 334.226562 291.742188 333.976562 291.859375 C 333.726562 291.976562 333.621094 292.273438 333.738281 292.523438 C 334.308594 293.742188 334.941406 294.953125 335.621094 296.125 C 335.710938 296.285156 335.878906 296.371094 336.050781 296.371094 C 336.136719 296.371094 336.222656 296.351562 336.300781 296.304688 C 336.539062 296.167969 336.621094 295.863281 336.484375 295.621094 C 335.820312 294.476562 335.199219 293.292969 334.640625 292.097656 Z M 383.894531 317.703125 C 382.597656 317.929688 381.273438 318.105469 379.953125 318.21875 C 379.679688 318.246094 379.476562 318.488281 379.5 318.761719 C 379.519531 319.023438 379.738281 319.21875 379.996094 319.21875 C 380.011719 319.21875 380.023438 319.214844 380.039062 319.214844 C 381.386719 319.097656 382.742188 318.921875 384.066406 318.6875 C 384.339844 318.640625 384.523438 318.378906 384.472656 318.109375 C 384.425781 317.835938 384.167969 317.65625 383.894531 317.703125 Z M 391.570312 315.648438 C 390.328125 316.101562 389.050781 316.503906 387.777344 316.84375 C 387.511719 316.914062 387.351562 317.1875 387.425781 317.457031 C 387.484375 317.679688 387.6875 317.828125 387.90625 317.828125 C 387.949219 317.828125 387.992188 317.820312 388.035156 317.808594 C 389.339844 317.460938 390.640625 317.050781 391.910156 316.585938 C 392.171875 316.492188 392.304688 316.203125 392.210938 315.945312 C 392.113281 315.6875 391.828125 315.554688 391.570312 315.648438 Z M 331.917969 284.632812 C 331.84375 284.367188 331.570312 284.207031 331.304688 284.28125 C 331.039062 284.351562 330.878906 284.625 330.953125 284.894531 C 331.300781 286.195312 331.714844 287.5 332.175781 288.769531 C 332.25 288.972656 332.441406 289.097656 332.644531 289.097656 C 332.703125 289.097656 332.761719 289.089844 332.816406 289.066406 C 333.074219 288.972656 333.207031 288.683594 333.113281 288.425781 C 332.664062 287.1875 332.257812 285.910156 331.917969 284.632812 Z M 360.386719 315.667969 C 359.148438 315.214844 357.910156 314.703125 356.710938 314.144531 C 356.460938 314.027344 356.164062 314.136719 356.050781 314.386719 C 355.933594 314.636719 356.039062 314.933594 356.289062 315.050781 C 357.515625 315.621094 358.78125 316.144531 360.046875 316.605469 C 360.105469 316.625 360.160156 316.636719 360.21875 316.636719 C 360.421875 316.636719 360.613281 316.507812 360.6875 316.304688 C 360.78125 316.046875 360.648438 315.761719 360.386719 315.667969 Z M 357.800781 264.144531 C 357.800781 268.1875 354.523438 271.464844 350.484375 271.464844 C 346.441406 271.464844 343.164062 268.1875 343.164062 264.144531 C 343.164062 260.097656 346.441406 256.820312 350.484375 256.820312 C 354.523438 256.820312 357.800781 260.097656 357.800781 264.144531 Z M 362.738281 283.5 L 362.738281 280.535156 C 362.738281 276.167969 359.199219 272.628906 354.835938 272.628906 L 346.128906 272.628906 C 341.765625 272.628906 338.226562 276.167969 338.226562 280.535156 L 338.226562 283.5 C 338.226562 285.457031 339.8125 287.046875 341.769531 287.046875 L 359.195312 287.046875 C 361.152344 287.046875 362.738281 285.457031 362.738281 283.5 Z M 407.992188 264.144531 C 407.992188 268.1875 404.71875 271.464844 400.675781 271.464844 C 396.632812 271.464844 393.355469 268.1875 393.355469 264.144531 C 393.355469 260.097656 396.632812 256.820312 400.675781 256.820312 C 404.71875 256.820312 407.992188 260.097656 407.992188 264.144531 Z M 412.929688 283.5 L 412.929688 280.535156 C 412.929688 276.167969 409.390625 272.628906 405.027344 272.628906 L 396.324219 272.628906 C 391.957031 272.628906 388.417969 276.167969 388.417969 280.535156 L 388.417969 283.5 C 388.417969 285.457031 390.007812 287.046875 391.964844 287.046875 L 409.386719 287.046875 C 411.34375 287.046875 412.929688 285.457031 412.929688 283.5 Z M 382.898438 282.808594 C 382.898438 286.851562 379.621094 290.132812 375.578125 290.132812 C 371.535156 290.132812 368.261719 286.851562 368.261719 282.808594 C 368.261719 278.765625 371.535156 275.484375 375.578125 275.484375 C 379.621094 275.484375 382.898438 278.765625 382.898438 282.808594 Z M 387.835938 302.167969 L 387.835938 299.203125 C 387.835938 294.832031 384.296875 291.292969 379.929688 291.292969 L 371.226562 291.292969 C 366.863281 291.292969 363.324219 294.832031 363.324219 299.203125 L 363.324219 302.167969 C 363.324219 304.125 364.910156 305.710938 366.867188 305.710938 L 384.289062 305.710938 C 386.246094 305.710938 387.835938 304.125 387.835938 302.167969 Z M 387.835938 302.167969 " fill-opacity="1" fill-rule="nonzero"/><path fill="#e0e887" d="M 468.394531 252.222656 L 483.25 252.222656 C 489.957031 252.222656 495.390625 257.664062 495.390625 264.371094 L 495.390625 268.203125 C 495.390625 274.914062 489.957031 280.351562 483.25 280.351562 L 469.890625 280.351562 L 466.5625 290.84375 L 463.453125 279.300781 C 459.210938 277.40625 456.25 273.152344 456.25 268.203125 L 456.25 264.371094 C 456.25 257.664062 461.6875 252.222656 468.394531 252.222656 Z M 498.734375 309.472656 L 453.707031 309.472656 C 450.980469 309.472656 448.773438 311.683594 448.773438 314.410156 L 448.773438 383.625 C 448.773438 386.351562 450.980469 388.5625 453.707031 388.5625 L 510.171875 388.5625 C 512.898438 388.5625 515.105469 386.351562 515.105469 383.625 L 515.105469 327.226562 Z M 498.734375 309.472656 " fill-opacity="1" fill-rule="nonzero"/><path fill="#000000" d="M 385.304688 233.097656 C 372.300781 227.933594 357.546875 234.316406 352.382812 247.324219 C 347.222656 260.332031 353.601562 275.097656 366.605469 280.261719 C 378.632812 285.035156 392.21875 279.921875 398.257812 268.8125 L 433.171875 282.695312 L 435.414062 277.042969 L 400.449219 263.160156 C 403.710938 250.929688 397.332031 237.871094 385.304688 233.097656 Z M 395.238281 264.328125 C 391 275 378.972656 280.164062 368.308594 275.972656 C 357.644531 271.734375 352.480469 259.699219 356.667969 249.027344 C 360.90625 238.359375 372.933594 233.195312 383.597656 237.382812 C 394.261719 241.625 399.425781 253.707031 395.238281 264.328125 Z M 485.179688 263.679688 C 486.589844 263.679688 487.734375 264.824219 487.734375 266.234375 C 487.734375 267.648438 486.589844 268.792969 485.179688 268.792969 C 483.769531 268.792969 482.625 267.648438 482.625 266.234375 C 482.625 264.824219 483.769531 263.679688 485.179688 263.679688 Z M 475.820312 263.679688 C 477.234375 263.679688 478.375 264.824219 478.375 266.234375 C 478.375 267.648438 477.234375 268.792969 475.820312 268.792969 C 474.410156 268.792969 473.265625 267.648438 473.265625 266.234375 C 473.265625 264.824219 474.410156 263.679688 475.820312 263.679688 Z M 466.464844 263.679688 C 467.875 263.679688 469.019531 264.824219 469.019531 266.234375 C 469.019531 267.648438 467.875 268.792969 466.464844 268.792969 C 465.050781 268.792969 463.90625 267.648438 463.90625 266.234375 C 463.90625 264.824219 465.050781 263.679688 466.464844 263.679688 Z M 466.464844 263.679688 " fill-opacity="1" fill-rule="nonzero"/><path fill="#cf9dc8" d="M 566.890625 338.566406 L 554.996094 338.480469 C 552.519531 338.464844 550.519531 336.453125 550.519531 333.972656 L 550.519531 320.808594 Z M 524.996094 328.277344 C 523.003906 328.277344 521.390625 329.890625 521.390625 331.882812 C 521.390625 333.875 523.003906 335.488281 524.996094 335.488281 C 526.984375 335.488281 528.597656 333.875 528.597656 331.882812 C 528.597656 329.890625 526.984375 328.277344 524.996094 328.277344 Z M 529.285156 343.164062 L 520.703125 343.164062 C 519.738281 343.164062 518.957031 342.378906 518.957031 341.417969 L 518.957031 339.957031 C 518.957031 337.804688 520.699219 336.0625 522.851562 336.0625 L 527.136719 336.0625 C 529.285156 336.0625 531.03125 337.804688 531.03125 339.957031 L 531.03125 341.417969 C 531.03125 342.378906 530.25 343.164062 529.285156 343.164062 Z M 550.4375 354.410156 L 520.386719 354.410156 C 519.652344 354.410156 519.054688 353.8125 519.054688 353.078125 L 519.054688 352.386719 C 519.054688 351.652344 519.652344 351.058594 520.386719 351.058594 L 550.4375 351.058594 C 551.171875 351.058594 551.769531 351.652344 551.769531 352.386719 L 551.769531 353.078125 C 551.769531 353.8125 551.171875 354.410156 550.4375 354.410156 Z M 550.4375 361.34375 L 520.386719 361.34375 C 519.652344 361.34375 519.054688 360.746094 519.054688 360.011719 L 519.054688 359.324219 C 519.054688 358.589844 519.652344 357.992188 520.386719 357.992188 L 550.4375 357.992188 C 551.171875 357.992188 551.769531 358.589844 551.769531 359.324219 L 551.769531 360.011719 C 551.769531 360.746094 551.171875 361.34375 550.4375 361.34375 Z M 550.4375 368.277344 L 520.386719 368.277344 C 519.652344 368.277344 519.054688 367.683594 519.054688 366.945312 L 519.054688 366.257812 C 519.054688 365.523438 519.652344 364.925781 520.386719 364.925781 L 550.4375 364.925781 C 551.171875 364.925781 551.769531 365.523438 551.769531 366.257812 L 551.769531 366.945312 C 551.769531 367.683594 551.171875 368.277344 550.4375 368.277344 Z M 541.632812 375.210938 L 520.386719 375.210938 C 519.652344 375.210938 519.054688 374.617188 519.054688 373.882812 L 519.054688 373.191406 C 519.054688 372.457031 519.652344 371.859375 520.386719 371.859375 L 541.632812 371.859375 C 542.367188 371.859375 542.960938 372.457031 542.960938 373.191406 L 542.960938 373.882812 C 542.960938 374.617188 542.367188 375.210938 541.632812 375.210938 Z M 541.632812 382.148438 L 520.386719 382.148438 C 519.652344 382.148438 519.054688 381.550781 519.054688 380.816406 L 519.054688 380.125 C 519.054688 379.390625 519.652344 378.796875 520.386719 378.796875 L 541.632812 378.796875 C 542.367188 378.796875 542.960938 379.390625 542.960938 380.125 L 542.960938 380.816406 C 542.960938 381.550781 542.367188 382.148438 541.632812 382.148438 Z M 541.632812 389.082031 L 520.386719 389.082031 C 519.652344 389.082031 519.054688 388.484375 519.054688 387.75 L 519.054688 387.0625 C 519.054688 386.328125 519.652344 385.730469 520.386719 385.730469 L 541.632812 385.730469 C 542.367188 385.730469 542.960938 386.328125 542.960938 387.0625 L 542.960938 387.75 C 542.960938 388.484375 542.367188 389.082031 541.632812 389.082031 Z M 413.796875 328.277344 C 411.808594 328.277344 410.195312 329.890625 410.195312 331.882812 C 410.195312 333.875 411.808594 335.488281 413.796875 335.488281 C 415.789062 335.488281 417.402344 333.875 417.402344 331.882812 C 417.402344 329.890625 415.789062 328.277344 413.796875 328.277344 Z M 418.089844 343.164062 L 409.507812 343.164062 C 408.542969 343.164062 407.761719 342.378906 407.761719 341.417969 L 407.761719 339.957031 C 407.761719 337.804688 409.503906 336.0625 411.65625 336.0625 L 415.941406 336.0625 C 418.089844 336.0625 419.835938 337.804688 419.835938 339.957031 L 419.835938 341.417969 C 419.835938 342.378906 419.054688 343.164062 418.089844 343.164062 Z M 439.242188 354.410156 L 409.1875 354.410156 C 408.453125 354.410156 407.859375 353.8125 407.859375 353.078125 L 407.859375 352.386719 C 407.859375 351.652344 408.453125 351.058594 409.1875 351.058594 L 439.242188 351.058594 C 439.976562 351.058594 440.574219 351.652344 440.574219 352.386719 L 440.574219 353.078125 C 440.574219 353.8125 439.976562 354.410156 439.242188 354.410156 Z M 439.242188 361.34375 L 409.1875 361.34375 C 408.453125 361.34375 407.859375 360.746094 407.859375 360.011719 L 407.859375 359.324219 C 407.859375 358.589844 408.453125 357.992188 409.1875 357.992188 L 439.242188 357.992188 C 439.976562 357.992188 440.574219 358.589844 440.574219 359.324219 L 440.574219 360.011719 C 440.574219 360.746094 439.976562 361.34375 439.242188 361.34375 Z M 439.242188 368.277344 L 409.1875 368.277344 C 408.453125 368.277344 407.859375 367.683594 407.859375 366.945312 L 407.859375 366.257812 C 407.859375 365.523438 408.453125 364.925781 409.1875 364.925781 L 439.242188 364.925781 C 439.976562 364.925781 440.574219 365.523438 440.574219 366.257812 L 440.574219 366.945312 C 440.574219 367.683594 439.976562 368.277344 439.242188 368.277344 Z M 430.4375 375.210938 L 409.191406 375.210938 C 408.457031 375.210938 407.859375 374.617188 407.859375 373.882812 L 407.859375 373.191406 C 407.859375 372.457031 408.457031 371.859375 409.191406 371.859375 L 430.4375 371.859375 C 431.171875 371.859375 431.765625 372.457031 431.765625 373.191406 L 431.765625 373.882812 C 431.765625 374.617188 431.171875 375.210938 430.4375 375.210938 Z M 430.4375 382.148438 L 409.191406 382.148438 C 408.457031 382.148438 407.859375 381.550781 407.859375 380.816406 L 407.859375 380.125 C 407.859375 379.390625 408.457031 378.796875 409.191406 378.796875 L 430.4375 378.796875 C 431.171875 378.796875 431.765625 379.390625 431.765625 380.125 L 431.765625 380.816406 C 431.765625 381.550781 431.171875 382.148438 430.4375 382.148438 Z M 430.4375 389.082031 L 409.191406 389.082031 C 408.457031 389.082031 407.859375 388.484375 407.859375 387.75 L 407.859375 387.0625 C 407.859375 386.328125 408.457031 385.730469 409.191406 385.730469 L 430.4375 385.730469 C 431.171875 385.730469 431.765625 386.328125 431.765625 387.0625 L 431.765625 387.75 C 431.765625 388.484375 431.171875 389.082031 430.4375 389.082031 Z M 505.921875 341.792969 L 457.445312 341.792969 L 457.445312 344.257812 L 505.921875 344.257812 Z M 505.921875 353.179688 L 457.445312 353.179688 L 457.445312 350.710938 L 505.921875 350.710938 Z M 505.921875 362.519531 L 457.445312 362.519531 L 457.445312 360.054688 L 505.921875 360.054688 Z M 461.652344 370.648438 L 462.523438 372.296875 C 462.582031 372.410156 462.699219 372.488281 462.832031 372.507812 L 464.773438 372.769531 C 465.109375 372.816406 465.246094 373.207031 465 373.425781 L 463.597656 374.710938 C 463.5 374.796875 463.453125 374.925781 463.476562 375.050781 L 463.808594 376.863281 C 463.867188 377.175781 463.515625 377.417969 463.214844 377.269531 L 461.476562 376.414062 C 461.355469 376.351562 461.214844 376.351562 461.09375 376.414062 L 459.355469 377.269531 C 459.054688 377.417969 458.703125 377.175781 458.761719 376.863281 L 459.09375 375.050781 C 459.117188 374.925781 459.070312 374.796875 458.976562 374.710938 L 457.570312 373.425781 C 457.324219 373.207031 457.460938 372.816406 457.796875 372.769531 L 459.738281 372.507812 C 459.871094 372.488281 459.988281 372.410156 460.046875 372.296875 L 460.917969 370.648438 C 461.066406 370.363281 461.503906 370.363281 461.652344 370.648438 Z M 471.117188 370.648438 L 470.246094 372.296875 C 470.1875 372.410156 470.074219 372.488281 469.9375 372.507812 L 467.996094 372.769531 C 467.660156 372.816406 467.523438 373.207031 467.769531 373.425781 L 469.175781 374.710938 C 469.269531 374.796875 469.316406 374.925781 469.292969 375.050781 L 468.960938 376.863281 C 468.902344 377.175781 469.253906 377.417969 469.554688 377.269531 L 471.292969 376.414062 C 471.414062 376.351562 471.554688 376.351562 471.675781 376.414062 L 473.414062 377.269531 C 473.714844 377.417969 474.066406 377.175781 474.007812 376.863281 L 473.675781 375.050781 C 473.652344 374.925781 473.699219 374.796875 473.792969 374.710938 L 475.199219 373.425781 C 475.445312 373.207031 475.308594 372.816406 474.972656 372.769531 L 473.03125 372.507812 C 472.898438 372.488281 472.78125 372.410156 472.722656 372.296875 L 471.851562 370.648438 C 471.703125 370.363281 471.265625 370.363281 471.117188 370.648438 Z M 481.316406 370.648438 L 480.449219 372.296875 C 480.386719 372.410156 480.273438 372.488281 480.136719 372.507812 L 478.195312 372.769531 C 477.859375 372.816406 477.722656 373.207031 477.96875 373.425781 L 479.375 374.710938 C 479.46875 374.796875 479.515625 374.925781 479.492188 375.050781 L 479.160156 376.863281 C 479.101562 377.175781 479.453125 377.417969 479.753906 377.269531 L 481.492188 376.414062 C 481.613281 376.351562 481.753906 376.351562 481.875 376.414062 L 483.613281 377.269531 C 483.914062 377.417969 484.265625 377.175781 484.207031 376.863281 L 483.875 375.050781 C 483.855469 374.925781 483.898438 374.796875 483.996094 374.710938 L 485.398438 373.425781 C 485.644531 373.207031 485.507812 372.816406 485.171875 372.769531 L 483.230469 372.507812 C 483.097656 372.488281 482.980469 372.410156 482.921875 372.296875 L 482.050781 370.648438 C 481.902344 370.363281 481.464844 370.363281 481.316406 370.648438 Z M 491.515625 370.648438 L 490.644531 372.296875 C 490.585938 372.410156 490.472656 372.488281 490.335938 372.507812 L 488.394531 372.769531 C 488.058594 372.816406 487.921875 373.207031 488.167969 373.425781 L 489.574219 374.710938 C 489.667969 374.796875 489.714844 374.925781 489.691406 375.050781 L 489.359375 376.863281 C 489.300781 377.175781 489.652344 377.417969 489.953125 377.269531 L 491.691406 376.414062 C 491.8125 376.351562 491.953125 376.351562 492.074219 376.414062 L 493.8125 377.269531 C 494.113281 377.417969 494.464844 377.175781 494.40625 376.863281 L 494.074219 375.050781 C 494.050781 374.925781 494.097656 374.796875 494.195312 374.710938 L 495.597656 373.425781 C 495.84375 373.207031 495.707031 372.816406 495.371094 372.769531 L 493.429688 372.507812 C 493.296875 372.488281 493.179688 372.410156 493.121094 372.296875 L 492.25 370.648438 C 492.101562 370.363281 491.664062 370.363281 491.515625 370.648438 Z M 501.714844 370.648438 L 500.847656 372.296875 C 500.785156 372.410156 500.671875 372.488281 500.535156 372.507812 L 498.59375 372.769531 C 498.257812 372.816406 498.121094 373.207031 498.367188 373.425781 L 499.773438 374.710938 C 499.871094 374.796875 499.914062 374.925781 499.890625 375.050781 L 499.558594 376.863281 C 499.5 377.175781 499.851562 377.417969 500.152344 377.269531 L 501.890625 376.414062 C 502.011719 376.351562 502.152344 376.351562 502.273438 376.414062 L 504.011719 377.269531 C 504.3125 377.417969 504.664062 377.175781 504.605469 376.863281 L 504.273438 375.050781 C 504.253906 374.925781 504.296875 374.796875 504.394531 374.710938 L 505.796875 373.425781 C 506.042969 373.207031 505.90625 372.816406 505.570312 372.769531 L 503.628906 372.507812 C 503.496094 372.488281 503.378906 372.410156 503.320312 372.296875 L 502.449219 370.648438 C 502.300781 370.363281 501.867188 370.363281 501.714844 370.648438 Z M 501.714844 370.648438 " fill-opacity="1" fill-rule="nonzero"/><g clip-path="url(#4082d20807)"><path fill="#8d53a1" d="M 367.964844 419.996094 L 354.296875 458.773438 L 324.023438 458.773438 L 324.023438 464.273438 L 409.421875 464.273438 L 423.789062 419.996094 Z M 434.578125 216.667969 L 434.578125 219.789062 L 317.753906 219.789062 L 317.753906 216.667969 C 317.753906 212.039062 321.503906 208.285156 326.132812 208.285156 L 426.203125 208.285156 C 430.828125 208.285156 434.578125 212.039062 434.578125 216.667969 Z M 440.28125 277.582031 L 437.070312 285.621094 L 404.976562 272.855469 L 408.191406 264.816406 Z M 440.28125 277.582031 " fill-opacity="1" fill-rule="nonzero"/></g><path fill="#8d53a1" d="M 515.105469 327.226562 L 503.210938 327.144531 C 500.734375 327.128906 498.734375 325.113281 498.734375 322.636719 L 498.734375 309.472656 Z M 463.480469 317.632812 C 461.488281 317.632812 459.875 319.246094 459.875 321.238281 C 459.875 323.230469 461.488281 324.84375 463.480469 324.84375 C 465.472656 324.84375 467.085938 323.230469 467.085938 321.238281 C 467.085938 319.246094 465.472656 317.632812 463.480469 317.632812 Z M 467.773438 332.519531 L 459.191406 332.519531 C 458.226562 332.519531 457.445312 331.738281 457.445312 330.773438 L 457.445312 329.3125 C 457.445312 327.160156 459.1875 325.417969 461.335938 325.417969 L 465.625 325.417969 C 467.773438 325.417969 469.515625 327.164062 469.515625 329.3125 L 469.515625 330.773438 C 469.515625 331.738281 468.734375 332.519531 467.773438 332.519531 Z M 487.925781 345.871094 L 486.917969 345.871094 C 485.839844 345.871094 484.964844 344.996094 484.964844 343.917969 L 484.964844 341.566406 C 484.964844 340.488281 485.839844 339.613281 486.917969 339.613281 L 487.925781 339.613281 C 489.007812 339.613281 489.878906 340.488281 489.878906 341.566406 L 489.878906 343.917969 C 489.878906 344.996094 489.007812 345.871094 487.925781 345.871094 Z M 496.890625 352.835938 L 496.890625 350.484375 C 496.890625 349.40625 496.015625 348.53125 494.9375 348.53125 L 493.925781 348.53125 C 492.847656 348.53125 491.972656 349.40625 491.972656 350.484375 L 491.972656 352.835938 C 491.972656 353.914062 492.847656 354.789062 493.925781 354.789062 L 494.9375 354.789062 C 496.015625 354.789062 496.890625 353.914062 496.890625 352.835938 Z M 503.898438 362.179688 L 503.898438 359.828125 C 503.898438 358.75 503.023438 357.875 501.945312 357.875 L 500.933594 357.875 C 499.855469 357.875 498.980469 358.75 498.980469 359.828125 L 498.980469 362.179688 C 498.980469 363.257812 499.855469 364.132812 500.933594 364.132812 L 501.945312 364.132812 C 503.023438 364.132812 503.898438 363.257812 503.898438 362.179688 Z M 503.898438 362.179688 " fill-opacity="1" fill-rule="nonzero"/><path fill="#e0e887" d="M 483.476562 233.566406 C 483.476562 234.980469 482.332031 236.125 480.921875 236.125 C 479.511719 236.125 478.367188 234.980469 478.367188 233.566406 C 478.367188 232.15625 479.511719 231.011719 480.921875 231.011719 C 482.332031 231.011719 483.476562 232.15625 483.476562 233.566406 Z M 490.28125 231.011719 C 488.871094 231.011719 487.726562 232.15625 487.726562 233.566406 C 487.726562 234.980469 488.871094 236.125 490.28125 236.125 C 491.691406 236.125 492.835938 234.980469 492.835938 233.566406 C 492.835938 232.15625 491.691406 231.011719 490.28125 231.011719 Z M 499.640625 231.011719 C 498.226562 231.011719 497.082031 232.15625 497.082031 233.566406 C 497.082031 234.980469 498.226562 236.125 499.640625 236.125 C 501.050781 236.125 502.195312 234.980469 502.195312 233.566406 C 502.195312 232.15625 501.050781 231.011719 499.640625 231.011719 Z M 390.660156 439.34375 C 388.113281 439.34375 386.050781 441.410156 386.050781 443.957031 C 386.050781 446.503906 388.113281 448.566406 390.660156 448.566406 C 393.207031 448.566406 395.269531 446.503906 395.269531 443.957031 C 395.269531 441.410156 393.207031 439.34375 390.660156 439.34375 Z M 523.089844 295.621094 C 523.765625 294.945312 524.199219 294.269531 524.488281 293.640625 C 524.679688 293.207031 525.308594 293.207031 525.5 293.640625 C 525.789062 294.269531 526.222656 294.945312 526.898438 295.621094 C 527.574219 296.296875 528.300781 296.730469 528.878906 297.019531 C 529.3125 297.214844 529.3125 297.839844 528.878906 298.035156 C 528.25 298.324219 527.527344 298.757812 526.898438 299.433594 C 526.222656 300.109375 525.789062 300.785156 525.5 301.414062 C 525.308594 301.847656 524.679688 301.847656 524.488281 301.414062 C 524.199219 300.785156 523.765625 300.109375 523.089844 299.433594 C 522.414062 298.757812 521.6875 298.324219 521.109375 298.035156 C 520.675781 297.839844 520.675781 297.214844 521.109375 297.019531 C 521.691406 296.730469 522.414062 296.296875 523.089844 295.621094 Z M 370.449219 349.148438 C 371.125 348.472656 371.558594 347.800781 371.847656 347.171875 C 372.042969 346.738281 372.667969 346.738281 372.863281 347.171875 C 373.152344 347.800781 373.585938 348.476562 374.261719 349.148438 C 374.9375 349.824219 375.660156 350.261719 376.238281 350.550781 C 376.671875 350.742188 376.671875 351.371094 376.238281 351.5625 C 375.613281 351.855469 374.886719 352.289062 374.261719 352.964844 C 373.585938 353.640625 373.152344 354.316406 372.863281 354.941406 C 372.667969 355.378906 372.042969 355.378906 371.847656 354.941406 C 371.558594 354.316406 371.125 353.640625 370.449219 352.964844 C 369.773438 352.289062 369.050781 351.855469 368.472656 351.5625 C 368.039062 351.371094 368.039062 350.742188 368.472656 350.550781 C 369.050781 350.261719 369.773438 349.828125 370.449219 349.148438 Z M 471.359375 417.925781 C 472.035156 417.246094 472.46875 416.574219 472.761719 415.945312 C 472.953125 415.511719 473.578125 415.511719 473.773438 415.945312 C 474.0625 416.574219 474.496094 417.25 475.171875 417.925781 C 475.847656 418.601562 476.570312 419.035156 477.148438 419.324219 C 477.585938 419.515625 477.585938 420.144531 477.148438 420.335938 C 476.523438 420.628906 475.800781 421.0625 475.171875 421.738281 C 474.496094 422.414062 474.0625 423.089844 473.773438 423.714844 C 473.578125 424.152344 472.953125 424.152344 472.761719 423.714844 C 472.46875 423.089844 472.035156 422.414062 471.359375 421.738281 C 470.683594 421.0625 469.960938 420.628906 469.382812 420.335938 C 468.949219 420.144531 468.949219 419.515625 469.382812 419.324219 C 469.960938 419.035156 470.683594 418.601562 471.359375 417.925781 Z M 448.550781 225.960938 C 449.226562 225.285156 449.660156 224.609375 449.949219 223.980469 C 450.144531 223.546875 450.769531 223.546875 450.960938 223.980469 C 451.253906 224.609375 451.6875 225.285156 452.363281 225.960938 C 453.039062 226.636719 453.761719 227.070312 454.339844 227.359375 C 454.773438 227.554688 454.773438 228.179688 454.339844 228.375 C 453.710938 228.664062 452.988281 229.097656 452.363281 229.773438 C 451.6875 230.449219 451.253906 231.125 450.960938 231.753906 C 450.769531 232.1875 450.144531 232.1875 449.949219 231.753906 C 449.660156 231.125 449.226562 230.449219 448.550781 229.773438 C 447.875 229.097656 447.152344 228.664062 446.574219 228.375 C 446.136719 228.179688 446.136719 227.554688 446.574219 227.359375 C 447.152344 227.070312 447.875 226.636719 448.550781 225.960938 Z M 328.804688 214.039062 C 328.804688 215.164062 327.894531 216.078125 326.769531 216.078125 C 325.640625 216.078125 324.730469 215.164062 324.730469 214.039062 C 324.730469 212.910156 325.640625 212 326.769531 212 C 327.894531 211.996094 328.804688 212.910156 328.804688 214.039062 Z M 333.875 211.996094 C 332.75 211.996094 331.835938 212.910156 331.835938 214.039062 C 331.835938 215.164062 332.75 216.078125 333.875 216.078125 C 335 216.078125 335.914062 215.164062 335.914062 214.039062 C 335.914062 212.910156 335 211.996094 333.875 211.996094 Z M 340.984375 211.996094 C 339.855469 211.996094 338.945312 212.910156 338.945312 214.039062 C 338.945312 215.164062 339.855469 216.078125 340.984375 216.078125 C 342.109375 216.078125 343.019531 215.164062 343.019531 214.039062 C 343.019531 212.910156 342.109375 211.996094 340.984375 211.996094 Z M 340.984375 211.996094 " fill-opacity="1" fill-rule="nonzero"/></svg>