<svg xmlns="http://www.w3.org/2000/svg" xmlns:xlink="http://www.w3.org/1999/xlink" width="1080" zoomAndPan="magnify" viewBox="0 0 810 809.999993" height="1080" preserveAspectRatio="xMidYMid meet" version="1.0"><path fill="#f5ba39" d="M 361.972656 521.832031 C 347.308594 512.179688 349.359375 493.550781 349.378906 493.367188 L 350.84375 493.539062 C 350.820312 493.714844 348.894531 511.457031 362.78125 520.601562 L 361.972656 521.832031 " fill-opacity="1" fill-rule="nonzero"/><path fill="#f5ba39" d="M 366.023438 518.757812 L 364.554688 518.757812 C 364.554688 503.648438 371.699219 498.894531 372.003906 498.695312 L 372.804688 499.9375 C 372.734375 499.984375 366.023438 504.527344 366.023438 518.757812 " fill-opacity="1" fill-rule="nonzero"/><path fill="#f5ba39" d="M 327.808594 497.6875 C 331.664062 500.449219 339.808594 500.9375 352.488281 509.339844 C 363.628906 500.128906 364.96875 490.925781 365.21875 488.066406 C 365.941406 479.882812 361.175781 472.4375 351.648438 457.550781 C 344.867188 446.949219 341.390625 441.703125 338.375 441.847656 C 327.066406 442.378906 315.457031 488.847656 327.808594 497.6875 " fill-opacity="1" fill-rule="nonzero"/><path fill="#f5ba39" d="M 373.417969 477.433594 C 369.992188 483.972656 367.007812 487.800781 367.808594 493.328125 C 368.304688 496.78125 370.066406 499.410156 371.464844 501.082031 C 371.464844 501.082031 384.410156 493.820312 387.417969 481.652344 C 390.25 470.191406 385.804688 457.058594 382.355469 457.011719 C 379.886719 456.980469 380.582031 463.765625 373.417969 477.433594 " fill-opacity="1" fill-rule="nonzero"/><path fill="#121328" d="M 352.542969 566.859375 L 372.402344 566.859375 L 372.402344 560.015625 L 352.542969 560.015625 L 352.542969 566.859375 " fill-opacity="1" fill-rule="nonzero"/><path fill="#3d5ab2" d="M 340.347656 518.757812 L 384.855469 518.757812 L 375.878906 559.75 C 375.414062 561.855469 373.550781 563.355469 371.398438 563.355469 L 353.796875 563.355469 C 351.644531 563.355469 349.78125 561.855469 349.324219 559.75 L 340.347656 518.757812 " fill-opacity="1" fill-rule="nonzero"/><path fill="#f7928f" d="M 534.933594 306.195312 L 533.050781 303.347656 C 532.296875 302.386719 531.175781 301.785156 529.957031 301.691406 L 526.144531 301.398438 C 525.898438 301.378906 525.777344 301.695312 525.980469 301.84375 L 529.691406 304.59375 C 530.074219 304.882812 530.269531 305.363281 530.191406 305.835938 C 530.011719 306.902344 530.371094 307.984375 531.152344 308.726562 L 532.421875 309.9375 L 534.933594 306.195312 " fill-opacity="1" fill-rule="nonzero"/><path fill="#f5ba39" d="M 520.117188 371.476562 L 554.40625 352.082031 C 557.996094 350.054688 559.007812 345.339844 556.570312 342.011719 L 530.230469 306.0625 L 526.050781 308.851562 L 544.269531 343.25 C 544.550781 343.777344 544.355469 344.433594 543.839844 344.726562 L 511.75 355.410156 L 520.117188 371.476562 " fill-opacity="1" fill-rule="nonzero"/><path fill="#f03f44" d="M 543.238281 255.8125 C 452.292969 264.519531 361.355469 322.53125 270.410156 322.53125 L 270.410156 390.339844 C 361.355469 390.339844 452.292969 332.335938 543.238281 323.625 L 543.238281 255.8125 " fill-opacity="1" fill-rule="nonzero"/><path fill="#ffffff" d="M 338.488281 360.585938 C 336.472656 360.824219 335.464844 360.929688 333.453125 361.097656 C 329.84375 352.253906 326.277344 343.394531 322.753906 334.515625 C 324.929688 334.515625 326.019531 334.492188 328.195312 334.394531 C 330.761719 341.199219 333.347656 347.996094 335.953125 354.785156 C 338.566406 347.46875 341.164062 340.136719 343.746094 332.804688 C 345.921875 332.464844 347.007812 332.277344 349.1875 331.859375 C 345.652344 341.445312 342.089844 351.023438 338.488281 360.585938 " fill-opacity="1" fill-rule="nonzero"/><path fill="#ffffff" d="M 364.628906 333.90625 C 363.039062 338.144531 361.445312 342.382812 359.847656 346.621094 C 363.671875 345.664062 365.582031 345.136719 369.40625 344.007812 C 367.496094 339.988281 366.539062 337.96875 364.628906 333.90625 Z M 371.355469 348.15625 C 366.878906 349.472656 362.421875 350.691406 357.898438 351.832031 C 357.015625 354.074219 356.574219 355.191406 355.691406 357.425781 C 353.589844 357.90625 352.542969 358.128906 350.4375 358.546875 C 354.320312 348.699219 358.164062 338.832031 361.980469 328.957031 C 364.097656 328.402344 365.15625 328.113281 367.273438 327.507812 C 371.089844 335.308594 374.9375 343.097656 378.816406 350.867188 C 376.699219 351.570312 375.640625 351.914062 373.519531 352.570312 C 372.65625 350.8125 372.222656 349.929688 371.355469 348.15625 " fill-opacity="1" fill-rule="nonzero"/><path fill="#ffffff" d="M 403.078125 338.640625 C 400.953125 341.90625 396.820312 345.015625 393.300781 346.367188 C 386.304688 349.054688 379.445312 345.007812 379.664062 337.3125 C 379.898438 329.050781 385.441406 321.195312 393.300781 318.28125 C 396.789062 316.988281 400.101562 317.097656 402.75 318.800781 C 401.453125 320.613281 400.808594 321.519531 399.515625 323.320312 C 397.824219 322.238281 395.511719 322.359375 393.300781 323.128906 C 388.175781 324.914062 384.628906 330.363281 384.441406 335.679688 C 384.261719 340.675781 388.679688 343.550781 393.300781 341.597656 C 395.40625 340.707031 398.078125 338.835938 399.769531 336.417969 C 401.09375 337.308594 401.753906 337.753906 403.078125 338.640625 " fill-opacity="1" fill-rule="nonzero"/><path fill="#ffffff" d="M 419.882812 314.101562 C 418.289062 318.558594 416.695312 323.015625 415.101562 327.472656 C 418.925781 325.949219 420.835938 325.183594 424.65625 323.667969 C 422.746094 319.839844 421.789062 317.929688 419.882812 314.101562 Z M 426.609375 327.628906 C 422.121094 329.40625 417.636719 331.195312 413.152344 332.976562 C 412.269531 335.359375 411.828125 336.550781 410.945312 338.933594 C 408.847656 339.765625 407.796875 340.183594 405.691406 341.007812 C 409.542969 330.503906 413.390625 320.003906 417.234375 309.5 C 419.351562 308.65625 420.410156 308.234375 422.527344 307.394531 C 426.378906 314.855469 430.226562 322.316406 434.070312 329.785156 C 431.949219 330.601562 430.894531 331.019531 428.773438 331.851562 C 427.90625 330.160156 427.476562 329.316406 426.609375 327.628906 " fill-opacity="1" fill-rule="nonzero"/><path fill="#ffffff" d="M 454.105469 295.464844 C 456.046875 294.804688 457.015625 294.480469 458.957031 293.851562 C 458.957031 302.839844 458.957031 311.832031 458.957031 320.820312 C 457.753906 321.210938 457.148438 321.414062 455.941406 321.816406 C 455.941406 321.828125 455.941406 321.835938 455.941406 321.855469 C 451.480469 317.339844 446.960938 312.878906 442.417969 308.453125 C 442.417969 314.507812 442.417969 320.5625 442.417969 326.613281 C 440.472656 327.335938 439.503906 327.699219 437.5625 328.445312 C 437.5625 319.46875 437.5625 310.488281 437.5625 301.507812 C 439.136719 300.910156 439.921875 300.613281 441.496094 300.023438 C 445.726562 304.058594 449.925781 308.113281 454.105469 312.199219 C 454.105469 306.621094 454.105469 301.042969 454.105469 295.464844 " fill-opacity="1" fill-rule="nonzero"/><path fill="#ffffff" d="M 487.003906 310.085938 C 484.808594 312.960938 480.605469 315.371094 477.230469 316.203125 C 470.132812 317.960938 463.382812 313.746094 463.59375 306.082031 C 463.808594 298.09375 469.132812 290.089844 477.230469 288.117188 C 480.722656 287.265625 484.03125 287.949219 486.675781 290.179688 C 485.382812 291.734375 484.734375 292.519531 483.441406 294.09375 C 481.75 292.71875 479.433594 292.484375 477.230469 292.96875 C 471.992188 294.117188 468.527344 299.542969 468.367188 304.667969 C 468.21875 309.648438 472.4375 312.792969 477.230469 311.433594 C 479.367188 310.828125 482.003906 309.359375 483.695312 307.242188 C 485.019531 308.367188 485.683594 308.933594 487.003906 310.085938 " fill-opacity="1" fill-rule="nonzero"/><path fill="#ffffff" d="M 500.351562 295.722656 C 502.613281 291.839844 504.894531 287.964844 507.191406 284.101562 C 509.527344 283.988281 510.695312 283.957031 513.035156 283.957031 C 513.035156 284.054688 513.035156 284.097656 513.035156 284.191406 C 509.546875 289.484375 506.140625 294.824219 502.777344 300.199219 C 502.777344 304.644531 502.777344 306.867188 502.777344 311.316406 C 500.835938 311.476562 499.867188 311.574219 497.925781 311.796875 C 497.925781 307.347656 497.925781 305.125 497.925781 300.679688 C 494.667969 295.953125 491.371094 291.253906 488.039062 286.578125 C 488.039062 286.484375 488.039062 286.441406 488.039062 286.347656 C 490.347656 285.929688 491.5 285.738281 493.808594 285.402344 C 496.015625 288.828125 498.195312 292.265625 500.351562 295.722656 " fill-opacity="1" fill-rule="nonzero"/><path fill="#f03f44" d="M 543.238281 247.277344 C 496.078125 250.496094 449.015625 266.710938 403.347656 282.460938 C 384.878906 288.832031 365.78125 295.417969 346.816406 301.042969 L 347.214844 302.394531 C 366.207031 296.757812 385.320312 290.167969 403.804688 283.792969 C 449.351562 268.085938 496.292969 251.910156 543.238281 248.691406 L 543.238281 247.277344 " fill-opacity="1" fill-rule="nonzero"/><path fill="#f03f44" d="M 287.273438 403.523438 L 287.085938 402.128906 C 297.871094 400.683594 308.9375 398.625 320.914062 395.828125 L 321.234375 397.199219 C 309.210938 400.007812 298.101562 402.074219 287.273438 403.523438 " fill-opacity="1" fill-rule="nonzero"/><path fill="#f03f44" d="M 356.058594 387.753906 L 355.652344 386.40625 C 373.511719 380.984375 391.441406 374.800781 408.777344 368.824219 C 435.773438 359.515625 463.664062 349.898438 491.328125 343.171875 L 491.664062 344.539062 C 464.058594 351.25 436.203125 360.859375 409.261719 370.148438 C 391.886719 376.136719 373.945312 382.324219 356.058594 387.753906 " fill-opacity="1" fill-rule="nonzero"/><path fill="#121328" d="M 428.246094 504.277344 L 452.722656 504.277344 C 457.550781 504.277344 461.476562 500.347656 461.476562 495.515625 L 461.476562 475.109375 L 458.476562 475.109375 L 458.476562 495.515625 C 458.476562 498.691406 455.894531 501.273438 452.722656 501.273438 L 428.246094 501.273438 L 428.246094 504.277344 " fill-opacity="1" fill-rule="nonzero"/><path fill="#3d5ab2" d="M 454.960938 476.519531 L 464.992188 476.519531 C 465.6875 476.519531 466.246094 475.957031 466.246094 475.265625 L 466.246094 472.757812 C 466.246094 472.0625 465.6875 471.503906 464.992188 471.503906 L 454.960938 471.503906 C 454.269531 471.503906 453.707031 472.0625 453.707031 472.757812 L 453.707031 475.265625 C 453.707031 475.957031 454.269531 476.519531 454.960938 476.519531 " fill-opacity="1" fill-rule="nonzero"/><path fill="#121328" d="M 420.054688 504.277344 L 395.574219 504.277344 C 390.746094 504.277344 386.824219 500.347656 386.824219 495.515625 L 386.824219 475.109375 L 389.820312 475.109375 L 389.820312 495.515625 C 389.820312 498.691406 392.398438 501.273438 395.574219 501.273438 L 420.054688 501.273438 L 420.054688 504.277344 " fill-opacity="1" fill-rule="nonzero"/><path fill="#121328" d="M 432.1875 497.71875 L 416.707031 497.71875 L 416.707031 469.390625 L 432.1875 469.390625 L 432.1875 497.71875 " fill-opacity="1" fill-rule="nonzero"/><path fill="#121328" d="M 428.84375 541.730469 L 420.054688 541.730469 L 420.054688 504.28125 L 428.84375 504.28125 L 428.84375 541.730469 " fill-opacity="1" fill-rule="nonzero"/><path fill="#3d5ab2" d="M 449.496094 504.28125 L 399.398438 504.28125 C 396.0625 504.28125 393.355469 501.570312 393.355469 498.226562 L 393.355469 495.90625 C 393.355469 492.5625 396.0625 489.851562 399.398438 489.851562 L 449.496094 489.851562 C 452.835938 489.851562 455.542969 492.5625 455.542969 495.90625 L 455.542969 498.226562 C 455.542969 501.570312 452.835938 504.28125 449.496094 504.28125 " fill-opacity="1" fill-rule="nonzero"/><path fill="#121328" d="M 454.144531 561.257812 L 450.542969 561.257812 C 450.542969 551.484375 442.601562 543.535156 432.839844 543.535156 L 415.257812 543.535156 C 405.496094 543.535156 397.554688 551.484375 397.554688 561.257812 L 393.953125 561.257812 C 393.953125 549.496094 403.511719 539.929688 415.257812 539.929688 L 432.839844 539.929688 C 444.589844 539.929688 454.144531 549.496094 454.144531 561.257812 " fill-opacity="1" fill-rule="nonzero"/><path fill="#121328" d="M 426.25 562.140625 L 422.648438 562.140625 L 422.648438 541.730469 L 426.25 541.730469 L 426.25 562.140625 " fill-opacity="1" fill-rule="nonzero"/><path fill="#f5ba39" d="M 400.46875 562.140625 C 400.46875 564.746094 398.355469 566.859375 395.753906 566.859375 C 393.148438 566.859375 391.039062 564.746094 391.039062 562.140625 C 391.039062 559.53125 393.148438 557.417969 395.753906 557.417969 C 398.355469 557.417969 400.46875 559.53125 400.46875 562.140625 " fill-opacity="1" fill-rule="nonzero"/><path fill="#f5ba39" d="M 457.0625 562.140625 C 457.0625 564.746094 454.949219 566.859375 452.347656 566.859375 C 449.742188 566.859375 447.628906 564.746094 447.628906 562.140625 C 447.628906 559.53125 449.742188 557.417969 452.347656 557.417969 C 454.949219 557.417969 457.0625 559.53125 457.0625 562.140625 " fill-opacity="1" fill-rule="nonzero"/><path fill="#f5ba39" d="M 429.164062 562.140625 C 429.164062 564.746094 427.050781 566.859375 424.449219 566.859375 C 421.84375 566.859375 419.730469 564.746094 419.730469 562.140625 C 419.730469 559.53125 421.84375 557.417969 424.449219 557.417969 C 427.050781 557.417969 429.164062 559.53125 429.164062 562.140625 " fill-opacity="1" fill-rule="nonzero"/><path fill="#3d5ab2" d="M 445.964844 402.730469 L 402.128906 402.730469 C 397.613281 402.730469 393.953125 406.394531 393.953125 410.917969 L 392.972656 420.277344 C 392.824219 421.652344 392.851562 423.046875 393.050781 424.414062 L 399.328125 467.984375 C 399.8125 472.105469 403.304688 475.210938 407.449219 475.210938 L 440.648438 475.210938 C 444.792969 475.210938 448.285156 472.105469 448.769531 467.984375 L 455.050781 424.414062 C 455.246094 423.046875 455.273438 421.652344 455.128906 420.277344 L 454.144531 410.917969 C 454.144531 406.394531 450.484375 402.730469 445.964844 402.730469 " fill-opacity="1" fill-rule="nonzero"/><path fill="#3d5ab2" d="M 393.339844 476.519531 L 383.304688 476.519531 C 382.613281 476.519531 382.054688 475.957031 382.054688 475.265625 L 382.054688 472.757812 C 382.054688 472.0625 382.613281 471.503906 383.304688 471.503906 L 393.339844 471.503906 C 394.027344 471.503906 394.589844 472.0625 394.589844 472.757812 L 394.589844 475.265625 C 394.589844 475.957031 394.027344 476.519531 393.339844 476.519531 " fill-opacity="1" fill-rule="nonzero"/><path fill="#f7928f" d="M 501.285156 339.390625 L 507.6875 340.855469 L 511.027344 353.15625 L 499.859375 353.15625 L 501.285156 339.390625 " fill-opacity="1" fill-rule="nonzero"/><path fill="#f7928f" d="M 484.292969 303.472656 L 485.734375 300.375 C 486.34375 299.316406 487.367188 298.558594 488.558594 298.285156 L 492.28125 297.4375 C 492.523438 297.378906 492.6875 297.675781 492.511719 297.851562 L 489.242188 301.117188 C 488.902344 301.457031 488.785156 301.960938 488.929688 302.417969 C 489.265625 303.445312 489.0625 304.570312 488.402344 305.421875 L 487.324219 306.800781 L 484.292969 303.472656 " fill-opacity="1" fill-rule="nonzero"/><path fill="#f5ba39" d="M 491.265625 373.875 L 492.4375 355.964844 L 492.710938 352.722656 L 474.160156 342.191406 C 473.820312 341.875 473.714844 341.386719 473.890625 340.957031 L 488.632812 305.371094 L 484.199219 303.3125 L 462.175781 339.359375 C 460.460938 342.160156 460.960938 345.777344 463.367188 348.007812 L 491.265625 373.875 " fill-opacity="1" fill-rule="nonzero"/><path fill="#f5ba39" d="M 484.234375 352.613281 L 492.074219 416.457031 L 518.332031 416.457031 L 525.625 353.15625 L 484.234375 352.613281 " fill-opacity="1" fill-rule="nonzero"/><path fill="#f7928f" d="M 507.742188 462.953125 L 518.332031 462.953125 L 534.199219 537.019531 L 529.289062 537.019531 L 507.742188 462.953125 " fill-opacity="1" fill-rule="nonzero"/><path fill="#f7928f" d="M 502.722656 462.953125 L 504.066406 537.019531 L 499.15625 537.019531 L 492.132812 462.953125 L 502.722656 462.953125 " fill-opacity="1" fill-rule="nonzero"/><path fill="#3d5ab2" d="M 519.972656 542.472656 L 524.605469 542.472656 L 531.355469 540.289062 L 529.242188 536.9375 L 519.972656 541.402344 L 519.972656 542.472656 " fill-opacity="1" fill-rule="nonzero"/><path fill="#3d5ab2" d="M 530.683594 542.472656 L 534.199219 542.472656 L 534.199219 536.9375 L 529.242188 536.9375 L 531.355469 540.289062 L 530.683594 542.472656 " fill-opacity="1" fill-rule="nonzero"/><path fill="#3d5ab2" d="M 489.839844 542.472656 L 494.472656 542.472656 L 501.222656 540.289062 L 499.109375 536.9375 L 489.839844 541.402344 L 489.839844 542.472656 " fill-opacity="1" fill-rule="nonzero"/><path fill="#3d5ab2" d="M 500.550781 542.472656 L 504.066406 542.472656 L 504.066406 536.9375 L 499.109375 536.9375 L 501.222656 540.289062 L 500.550781 542.472656 " fill-opacity="1" fill-rule="nonzero"/><path fill="#121328" d="M 503.730469 331.148438 C 503.363281 333.101562 501.484375 334.390625 499.53125 334.019531 C 497.574219 333.652344 496.292969 331.769531 496.660156 329.816406 C 497.027344 327.855469 498.90625 326.574219 500.859375 326.941406 C 502.8125 327.308594 504.097656 329.191406 503.730469 331.148438 " fill-opacity="1" fill-rule="nonzero"/><path fill="#f7928f" d="M 501.492188 344.351562 L 505.671875 345.085938 C 507.515625 345.414062 509.273438 344.183594 509.597656 342.335938 L 511.75 330.105469 L 498.269531 327.734375 L 496.582031 337.332031 C 496 340.628906 498.199219 343.773438 501.492188 344.351562 " fill-opacity="1" fill-rule="nonzero"/><path fill="#121328" d="M 511.589844 336.417969 L 504.769531 334.503906 C 498.867188 332.726562 496.914062 329.660156 497.703125 325.480469 C 497.980469 323.988281 499.746094 323.066406 501.644531 323.425781 L 507.597656 325.027344 C 510.867188 325.644531 513.128906 328.234375 512.640625 330.808594 L 511.589844 336.417969 " fill-opacity="1" fill-rule="nonzero"/><path fill="#b85db5" d="M 508.6875 351.441406 C 508.6875 352.613281 509.632812 353.566406 510.808594 353.566406 C 511.980469 353.566406 512.933594 352.613281 512.933594 351.441406 C 512.933594 350.269531 511.980469 349.316406 510.808594 349.316406 C 509.632812 349.316406 508.6875 350.269531 508.6875 351.441406 " fill-opacity="1" fill-rule="nonzero"/><path fill="#f5ba39" d="M 492.070312 462.882812 L 518.328125 462.882812 L 527.839844 423.171875 C 528.894531 418.78125 528.421875 414.15625 526.5 410.070312 L 520.574219 397.453125 L 489.792969 397.214844 L 483.757812 410.363281 C 481.890625 414.429688 481.445312 419.007812 482.5 423.355469 L 492.070312 462.882812 " fill-opacity="1" fill-rule="nonzero"/><path fill="#121328" d="M 517.417969 369.152344 L 522.285156 369.152344 L 522.285156 340.539062 C 522.285156 334.015625 517 328.722656 510.480469 328.722656 L 508.617188 328.722656 L 508.617188 360.339844 C 508.617188 365.203125 512.558594 369.152344 517.417969 369.152344 " fill-opacity="1" fill-rule="nonzero"/><path fill="#121328" d="M 506.441406 332.972656 L 506.441406 339.472656 C 506.441406 340.914062 507.167969 342.265625 508.375 343.0625 L 510.167969 344.246094 L 512.933594 336.4375 L 506.441406 332.972656 " fill-opacity="1" fill-rule="nonzero"/><path fill="#f7928f" d="M 505.222656 334.855469 C 504.78125 335.597656 505.03125 336.5625 505.773438 337 C 506.519531 337.441406 507.476562 337.191406 507.917969 336.449219 C 508.355469 335.703125 508.113281 334.742188 507.367188 334.300781 C 506.625 333.863281 505.664062 334.109375 505.222656 334.855469 " fill-opacity="1" fill-rule="nonzero"/><path fill="#f5ba39" d="M 311.988281 350.644531 L 266.296875 350.644531 C 266.207031 350.644531 266.128906 350.582031 266.109375 350.488281 L 254.816406 291.207031 C 253.007812 281.710938 260.277344 272.914062 269.929688 272.914062 L 302.347656 272.914062 C 311.316406 272.914062 318.355469 280.609375 317.5625 289.554688 L 312.179688 350.472656 C 312.171875 350.570312 312.089844 350.644531 311.988281 350.644531 " fill-opacity="1" fill-rule="nonzero"/><path fill="#3d5ab2" d="M 266.339844 350.644531 L 273.25 417.757812 L 272.34375 484.867188 L 277.546875 484.867188 L 286.542969 417.753906 L 289.015625 367.074219 L 292.820312 367.074219 L 299.558594 417.753906 L 300.359375 484.867188 L 305.5625 484.867188 L 312.847656 417.753906 L 311.964844 350.644531 L 266.339844 350.644531 " fill-opacity="1" fill-rule="nonzero"/><path fill="#f7928f" d="M 292.40625 265.441406 L 287.554688 265.441406 C 285.410156 265.441406 283.675781 263.703125 283.675781 261.558594 L 283.675781 247.355469 L 299.332031 247.355469 L 299.332031 258.507812 C 299.332031 262.335938 296.234375 265.441406 292.40625 265.441406 " fill-opacity="1" fill-rule="nonzero"/><path fill="#121328" d="M 301.328125 243.074219 L 287.390625 244.945312 C 284.453125 245.347656 282.972656 246.925781 282.972656 249.367188 L 282.972656 254.96875 C 282.972656 256.367188 284.109375 257.503906 285.507812 257.503906 L 288.09375 257.503906 L 288.09375 251.808594 C 288.09375 250.457031 289.183594 249.367188 290.53125 249.367188 L 299.292969 249.367188 L 301.328125 243.074219 " fill-opacity="1" fill-rule="nonzero"/><path fill="#f7928f" d="M 288.871094 254.265625 C 288.871094 255.078125 288.210938 255.734375 287.402344 255.734375 C 286.589844 255.734375 285.933594 255.078125 285.933594 254.265625 C 285.933594 253.457031 286.589844 252.796875 287.402344 252.796875 C 288.210938 252.796875 288.871094 253.457031 288.871094 254.265625 " fill-opacity="1" fill-rule="nonzero"/><path fill="#121328" d="M 287.269531 490.679688 L 282.40625 490.679688 L 277.546875 489.109375 L 277.546875 484.867188 L 282.40625 487.222656 L 287.269531 488.375 L 287.269531 490.679688 " fill-opacity="1" fill-rule="nonzero"/><path fill="#121328" d="M 276.035156 490.679688 L 272.347656 490.679688 L 272.347656 484.867188 L 277.546875 484.867188 L 277.546875 489.109375 L 276.035156 490.679688 " fill-opacity="1" fill-rule="nonzero"/><path fill="#121328" d="M 315.285156 490.679688 L 310.425781 490.679688 L 305.5625 489.109375 L 305.5625 484.867188 L 310.425781 487.222656 L 315.285156 488.375 L 315.285156 490.679688 " fill-opacity="1" fill-rule="nonzero"/><path fill="#121328" d="M 304.046875 490.679688 L 300.359375 490.679688 L 300.359375 484.867188 L 305.5625 484.867188 L 305.5625 489.109375 L 304.046875 490.679688 " fill-opacity="1" fill-rule="nonzero"/><path fill="#f7928f" d="M 291.265625 257.96875 L 285.40625 257.96875 L 281.042969 272.914062 C 281.042969 275.820312 283.398438 278.171875 286.296875 278.171875 L 290.703125 278.171875 C 293.605469 278.171875 295.957031 275.820312 295.957031 272.914062 L 291.265625 257.96875 " fill-opacity="1" fill-rule="nonzero"/><path fill="#f5ba39" d="M 327.960938 315.789062 L 364.628906 306.367188 L 366.390625 300.945312 L 333.914062 301.308594 L 314.601562 279.074219 L 302.292969 288.597656 L 327.960938 315.789062 " fill-opacity="1" fill-rule="nonzero"/><path fill="#f7928f" d="M 366.390625 300.945312 L 370.550781 301.109375 C 372.011719 301.164062 373.382812 301.828125 374.328125 302.941406 L 377.300781 306.421875 C 377.496094 306.652344 377.273438 306.988281 376.992188 306.898438 L 371.714844 305.246094 C 371.164062 305.074219 370.566406 305.226562 370.164062 305.636719 C 369.261719 306.558594 367.960938 306.972656 366.691406 306.742188 L 364.628906 306.367188 L 366.390625 300.945312 " fill-opacity="1" fill-rule="nonzero"/><path fill="#f7928f" d="M 296.238281 347.175781 L 300.261719 348.257812 C 301.675781 348.632812 303.179688 348.402344 304.414062 347.625 L 308.285156 345.179688 C 308.535156 345.019531 308.425781 344.636719 308.128906 344.636719 L 302.597656 344.644531 C 302.023438 344.648438 301.496094 344.328125 301.234375 343.816406 C 300.644531 342.664062 299.523438 341.882812 298.242188 341.726562 L 296.160156 341.472656 L 296.238281 347.175781 " fill-opacity="1" fill-rule="nonzero"/><path fill="#f5ba39" d="M 296.238281 347.175781 L 260.941406 341.808594 C 255.1875 341.675781 250.71875 336.738281 251.160156 330.988281 L 254.625 286.683594 L 269.238281 283.234375 L 266.054688 327.675781 C 265.980469 328.28125 266.382812 328.84375 266.976562 328.972656 L 296.160156 341.472656 L 296.238281 347.175781 " fill-opacity="1" fill-rule="nonzero"/><path fill="#f03f44" d="M 541.730469 566.859375 L 480.675781 566.859375 L 480.675781 542.472656 L 541.730469 542.472656 L 541.730469 566.859375 " fill-opacity="1" fill-rule="nonzero"/><path fill="#c7dff5" d="M 321.046875 518.671875 L 266.65625 518.671875 L 266.65625 516.777344 L 321.046875 516.777344 L 321.046875 518.671875 " fill-opacity="1" fill-rule="nonzero"/><path fill="#c7dff5" d="M 321.046875 543.140625 L 266.65625 543.140625 L 266.65625 541.25 L 321.046875 541.25 L 321.046875 543.140625 " fill-opacity="1" fill-rule="nonzero"/><path fill="#121328" d="M 322.382812 566.859375 L 319.714844 566.859375 L 319.714844 497.078125 L 267.988281 497.078125 L 267.988281 566.859375 L 265.328125 566.859375 L 265.328125 495.183594 L 322.382812 495.183594 L 322.382812 566.859375 " fill-opacity="1" fill-rule="nonzero"/><path fill="#f03f44" d="M 329.699219 497.601562 L 258.007812 497.601562 C 257.140625 497.601562 256.441406 497.105469 256.441406 496.488281 L 256.441406 491.792969 C 256.441406 491.179688 257.140625 490.679688 258.007812 490.679688 L 329.699219 490.679688 C 330.5625 490.679688 331.265625 491.179688 331.265625 491.792969 L 331.265625 496.488281 C 331.265625 497.105469 330.5625 497.601562 329.699219 497.601562 " fill-opacity="1" fill-rule="nonzero"/></svg>