<svg xmlns="http://www.w3.org/2000/svg" xmlns:xlink="http://www.w3.org/1999/xlink" width="1080" zoomAndPan="magnify" viewBox="0 0 810 809.999993" height="1080" preserveAspectRatio="xMidYMid meet" version="1.0"><defs><clipPath id="00b9d8d18e"><path d="M 243 269.214844 L 567 269.214844 L 567 540.714844 L 243 540.714844 Z M 243 269.214844 " clip-rule="nonzero"/></clipPath><clipPath id="8c92a812ff"><path d="M 243 521 L 567 521 L 567 540.714844 L 243 540.714844 Z M 243 521 " clip-rule="nonzero"/></clipPath><clipPath id="4e5541fc41"><path d="M 253 269.214844 L 557 269.214844 L 557 477 L 253 477 Z M 253 269.214844 " clip-rule="nonzero"/></clipPath><clipPath id="24e133fbdf"><path d="M 253 269.214844 L 557 269.214844 L 557 477 L 253 477 Z M 253 269.214844 " clip-rule="nonzero"/></clipPath></defs><g clip-path="url(#00b9d8d18e)"><path fill="#e7f2f1" d="M 541.488281 476.019531 L 542.402344 476.019531 C 550.0625 476.019531 556.265625 469.792969 556.265625 462.128906 L 556.265625 283.078125 C 556.265625 275.414062 550.0625 269.214844 542.402344 269.214844 L 267.597656 269.214844 C 259.9375 269.214844 253.734375 275.414062 253.734375 283.078125 L 253.734375 462.128906 C 253.734375 469.792969 259.9375 476.019531 267.597656 476.019531 L 268.511719 476.019531 L 243.414062 521.015625 L 243.414062 540.714844 L 566.585938 540.714844 L 566.585938 521.015625 Z M 541.488281 476.019531 " fill-opacity="1" fill-rule="nonzero"/></g><path fill="#655f68" d="M 541.488281 476.019531 L 566.585938 521.015625 L 243.414062 521.015625 L 268.511719 476.019531 Z M 541.488281 476.019531 " fill-opacity="1" fill-rule="nonzero"/><path fill="#6fceae" d="M 475.914062 392.144531 L 475.914062 392.769531 C 475.914062 395.453125 473.753906 397.644531 471.042969 397.644531 L 338.957031 397.644531 C 336.246094 397.644531 334.085938 395.453125 334.085938 392.769531 L 334.085938 392.144531 C 334.085938 389.433594 336.246094 387.273438 338.957031 387.273438 L 471.042969 387.273438 C 473.753906 387.273438 475.914062 389.433594 475.914062 392.144531 Z M 475.914062 392.144531 " fill-opacity="1" fill-rule="nonzero"/><path fill="#6fceae" d="M 475.914062 321.167969 L 475.914062 321.796875 C 475.914062 324.480469 473.753906 326.667969 471.042969 326.667969 L 338.957031 326.667969 C 336.246094 326.667969 334.085938 324.480469 334.085938 321.796875 L 334.085938 321.167969 C 334.085938 318.484375 336.246094 316.296875 338.957031 316.296875 L 471.042969 316.296875 C 473.753906 316.296875 475.914062 318.484375 475.914062 321.167969 Z M 475.914062 321.167969 " fill-opacity="1" fill-rule="nonzero"/><g clip-path="url(#8c92a812ff)"><path fill="#aba9a0" d="M 243.414062 521.015625 L 566.585938 521.015625 L 566.585938 540.714844 L 243.414062 540.714844 Z M 243.414062 521.015625 " fill-opacity="1" fill-rule="nonzero"/></g><g clip-path="url(#4e5541fc41)"><path fill="#aba9a0" d="M 556.265625 283.078125 L 556.265625 462.128906 C 556.265625 469.792969 550.0625 476.019531 542.402344 476.019531 L 267.597656 476.019531 C 259.9375 476.019531 253.734375 469.792969 253.734375 462.128906 L 253.734375 283.078125 C 253.734375 275.414062 259.9375 269.214844 267.597656 269.214844 L 542.402344 269.214844 C 550.0625 269.214844 556.265625 275.414062 556.265625 283.078125 Z M 540.289062 450.066406 L 540.289062 295.140625 C 540.289062 287.949219 534.476562 282.136719 527.285156 282.136719 L 282.714844 282.136719 C 275.523438 282.136719 269.710938 287.949219 269.710938 295.140625 L 269.710938 450.066406 C 269.710938 457.257812 275.523438 463.09375 282.714844 463.09375 L 527.285156 463.09375 C 534.476562 463.09375 540.289062 457.257812 540.289062 450.066406 Z M 540.289062 450.066406 " fill-opacity="1" fill-rule="nonzero"/></g><path fill="#ffc05a" d="M 502.941406 290.371094 C 505.261719 290.371094 507.113281 292.222656 507.113281 294.515625 C 507.113281 296.832031 505.261719 298.683594 502.941406 298.683594 C 500.648438 298.683594 498.796875 296.832031 498.796875 294.515625 C 498.796875 292.222656 500.648438 290.371094 502.941406 290.371094 Z M 502.941406 290.371094 " fill-opacity="1" fill-rule="nonzero"/><path fill="#e15c63" d="M 483.371094 290.371094 C 485.664062 290.371094 487.511719 292.222656 487.511719 294.515625 C 487.511719 296.832031 485.664062 298.683594 483.371094 298.683594 C 481.050781 298.683594 479.199219 296.832031 479.199219 294.515625 C 479.199219 292.222656 481.050781 290.371094 483.371094 290.371094 Z M 483.371094 290.371094 " fill-opacity="1" fill-rule="nonzero"/><path fill="#ddd8d6" d="M 452.171875 494.257812 L 460.511719 511.429688 L 349.488281 511.429688 L 357.828125 494.257812 Z M 452.171875 494.257812 " fill-opacity="1" fill-rule="nonzero"/><path fill="#cecdcc" d="M 453.242188 496.445312 L 460.511719 511.429688 L 380.8125 511.429688 C 409.976562 507.050781 434.058594 501.683594 453.242188 496.445312 Z M 453.242188 496.445312 " fill-opacity="1" fill-rule="nonzero"/><path fill="#5d5560" d="M 541.488281 476.019531 L 566.585938 521.015625 L 243.414062 521.015625 C 297.777344 521.015625 343.464844 517.03125 380.8125 511.429688 L 460.511719 511.429688 L 453.242188 496.445312 C 491.996094 485.945312 510.710938 476.019531 510.710938 476.019531 Z M 541.488281 476.019531 " fill-opacity="1" fill-rule="nonzero"/><path fill="#d6eae8" d="M 377.894531 435.972656 C 393.21875 431.230469 406.824219 425.601562 418.890625 419.347656 C 431.738281 412.730469 442.894531 405.382812 452.539062 397.644531 L 471.042969 397.644531 C 473.753906 397.644531 475.914062 395.453125 475.914062 392.769531 L 475.914062 392.144531 C 475.914062 389.433594 473.753906 387.273438 471.042969 387.273438 L 464.316406 387.273438 C 504.21875 348.917969 512.847656 303.816406 514.59375 282.136719 L 527.285156 282.136719 C 534.476562 282.136719 540.289062 287.949219 540.289062 295.140625 L 540.289062 450.066406 C 540.289062 457.257812 534.476562 463.09375 527.285156 463.09375 L 282.714844 463.09375 C 276.277344 463.09375 270.933594 458.40625 269.917969 452.253906 C 313.050781 451.082031 348.601562 445.089844 377.894531 435.972656 Z M 377.894531 435.972656 " fill-opacity="1" fill-rule="nonzero"/><g clip-path="url(#24e133fbdf)"><path fill="#9b9a94" d="M 556.265625 283.078125 L 556.265625 462.128906 C 556.265625 469.792969 550.0625 476.019531 542.402344 476.019531 L 267.597656 476.019531 C 259.9375 476.019531 253.734375 469.792969 253.734375 462.128906 L 253.734375 452.488281 C 259.234375 452.488281 264.628906 452.410156 269.917969 452.253906 C 270.933594 458.40625 276.277344 463.09375 282.714844 463.09375 L 527.285156 463.09375 C 534.476562 463.09375 540.289062 457.257812 540.289062 450.066406 L 540.289062 295.140625 C 540.289062 287.949219 534.476562 282.136719 527.285156 282.136719 L 514.59375 282.136719 C 515.21875 274.035156 514.90625 269.214844 514.90625 269.214844 L 542.402344 269.214844 C 550.0625 269.214844 556.265625 275.414062 556.265625 283.078125 Z M 556.265625 283.078125 " fill-opacity="1" fill-rule="nonzero"/></g><path fill="#6fceae" d="M 522.542969 290.371094 C 524.859375 290.371094 526.710938 292.222656 526.710938 294.515625 C 526.710938 296.832031 524.859375 298.683594 522.542969 298.683594 C 520.246094 298.683594 518.398438 296.832031 518.398438 294.515625 C 518.398438 292.222656 520.246094 290.371094 522.542969 290.371094 Z M 522.542969 290.371094 " fill-opacity="1" fill-rule="nonzero"/><path fill="#e15c63" d="M 364.109375 379.535156 C 370.703125 379.535156 376.074219 374.167969 376.074219 367.574219 L 376.074219 335.5 C 376.074219 334.0625 374.910156 332.894531 373.46875 332.894531 C 372.027344 332.894531 370.859375 334.0625 370.859375 335.5 L 370.859375 367.574219 C 370.859375 371.296875 367.832031 374.324219 364.109375 374.324219 C 362.316406 374.324219 360.632812 373.621094 359.359375 372.347656 C 358.085938 371.078125 357.386719 369.382812 357.386719 367.570312 L 357.386719 358.972656 C 357.386719 357.535156 356.222656 356.367188 354.78125 356.367188 C 353.339844 356.367188 352.175781 357.535156 352.175781 358.972656 L 352.175781 367.570312 C 352.175781 370.773438 353.417969 373.777344 355.675781 376.03125 C 357.925781 378.292969 360.921875 379.535156 364.109375 379.535156 Z M 364.109375 379.535156 " fill-opacity="1" fill-rule="nonzero"/><path fill="#e15c63" d="M 407.242188 379.351562 C 420.0625 379.351562 430.488281 368.9375 430.488281 356.136719 C 430.488281 343.320312 420.0625 332.894531 407.242188 332.894531 C 394.4375 332.894531 384.019531 343.320312 384.019531 356.136719 C 384.019531 368.9375 394.4375 379.351562 407.242188 379.351562 Z M 407.242188 338.105469 C 417.183594 338.105469 425.277344 346.195312 425.277344 356.136719 C 425.277344 366.0625 417.1875 374.140625 407.242188 374.140625 C 397.308594 374.140625 389.230469 366.0625 389.230469 356.136719 C 389.230469 346.195312 397.3125 338.105469 407.242188 338.105469 Z M 407.242188 338.105469 " fill-opacity="1" fill-rule="nonzero"/><path fill="#e15c63" d="M 438.386719 379.535156 C 446.296875 379.535156 459.679688 376.96875 459.679688 367.367188 C 459.679688 361.875 455.425781 358.542969 450.722656 356.519531 C 455.65625 354.546875 459.679688 351.054688 459.679688 345.191406 C 459.679688 335.484375 446.296875 332.894531 438.386719 332.894531 C 436.945312 332.894531 435.78125 334.0625 435.78125 335.5 L 435.78125 376.929688 C 435.78125 378.371094 436.945312 379.535156 438.386719 379.535156 Z M 440.992188 338.230469 C 446.160156 338.667969 454.46875 340.378906 454.46875 345.191406 C 454.46875 351.363281 445.546875 352.96875 440.992188 353.386719 Z M 440.992188 359.128906 C 446.25 360.066406 454.46875 362.546875 454.46875 367.367188 C 454.46875 372.09375 446.160156 373.769531 440.992188 374.203125 Z M 440.992188 359.128906 " fill-opacity="1" fill-rule="nonzero"/><path fill="#604533" d="M 330.253906 421.953125 L 479.878906 421.953125 C 481.320312 421.953125 482.484375 420.789062 482.484375 419.347656 C 482.484375 417.90625 481.320312 416.742188 479.878906 416.742188 L 330.253906 416.742188 C 328.8125 416.742188 327.648438 417.90625 327.648438 419.347656 C 327.648438 420.789062 328.8125 421.953125 330.253906 421.953125 Z M 330.253906 421.953125 " fill-opacity="1" fill-rule="nonzero"/><path fill="#604533" d="M 352.171875 435.972656 C 352.171875 437.410156 353.335938 438.578125 354.777344 438.578125 L 497.078125 438.578125 C 498.519531 438.578125 499.683594 437.410156 499.683594 435.972656 C 499.683594 434.53125 498.519531 433.367188 497.078125 433.367188 L 354.777344 433.367188 C 353.339844 433.367188 352.171875 434.53125 352.171875 435.972656 Z M 352.171875 435.972656 " fill-opacity="1" fill-rule="nonzero"/><path fill="#604533" d="M 312.921875 438.578125 L 338.410156 438.578125 C 339.851562 438.578125 341.015625 437.410156 341.015625 435.972656 C 341.015625 434.53125 339.851562 433.367188 338.410156 433.367188 L 312.921875 433.367188 C 311.480469 433.367188 310.316406 434.53125 310.316406 435.972656 C 310.316406 437.410156 311.480469 438.578125 312.921875 438.578125 Z M 312.921875 438.578125 " fill-opacity="1" fill-rule="nonzero"/><path fill="#604533" d="M 497.078125 447.929688 L 312.921875 447.929688 C 311.480469 447.929688 310.316406 449.09375 310.316406 450.535156 C 310.316406 451.976562 311.480469 453.140625 312.921875 453.140625 L 497.078125 453.140625 C 498.519531 453.140625 499.683594 451.976562 499.683594 450.535156 C 499.683594 449.09375 498.519531 447.929688 497.078125 447.929688 Z M 497.078125 447.929688 " fill-opacity="1" fill-rule="nonzero"/></svg>